<svg width="22" height="20" viewBox="0 0 22 20" fill="none" xmlns="http://www.w3.org/2000/svg">
<path d="M2.9799 6.22257C2.05679 7.31382 1.35239 8.59601 0.934326 10.0015C2.22562 14.338 6.24308 17.5 10.9991 17.5C11.9916 17.5 12.952 17.3623 13.8622 17.1049M5.2276 4.22763C6.88385 3.13558 8.86768 2.5 10.9999 2.5C15.7559 2.5 19.7734 5.66205 21.0647 9.99852C20.3528 12.3919 18.8105 14.4277 16.772 15.772M5.2276 4.22763L1.99997 1M5.2276 4.22763L8.87865 7.87868M16.772 15.772L20 19M16.772 15.772L13.1213 12.1213M13.1213 12.1213C13.6642 11.5784 14 10.8284 14 10C14 8.34315 12.6568 7 11 7C10.1715 7 9.42154 7.33579 8.87865 7.87868M13.1213 12.1213L8.87865 7.87868" stroke="#0F172A" stroke-width="1.5" stroke-linecap="round" stroke-linejoin="round"/>
</svg>
