<svg width="22" height="18" viewBox="0 0 22 18" fill="none" xmlns="http://www.w3.org/2000/svg">
<path d="M1.0355 9.3224C0.96642 9.11513 0.966354 8.89073 1.03531 8.68343C2.42368 4.50972 6.36074 1.5 11.0008 1.5C15.6386 1.5 19.5742 4.50692 20.9643 8.6776C21.0334 8.88487 21.0334 9.10927 20.9645 9.31658C19.5761 13.4903 15.639 16.5 10.999 16.5C6.36115 16.5 2.42559 13.4931 1.0355 9.3224Z" stroke="#0F172A" stroke-width="1.5" stroke-linecap="round" stroke-linejoin="round"/>
<path d="M14 9C14 10.6569 12.6568 12 11 12C9.3431 12 7.99995 10.6569 7.99995 9C7.99995 7.34315 9.3431 6 11 6C12.6568 6 14 7.34315 14 9Z" stroke="#0F172A" stroke-width="1.5" stroke-linecap="round" stroke-linejoin="round"/>
</svg>
